<?xml version="1.0" encoding="utf-8"?>
<!-- Generator: Adobe Illustrator 24.3.0, SVG Export Plug-In . SVG Version: 6.00 Build 0)  -->
<svg version="1.1" id="Layer_1" xmlns="http://www.w3.org/2000/svg" xmlns:xlink="http://www.w3.org/1999/xlink" x="0px" y="0px"
	 viewBox="0 0 1920 1080" style="enable-background:new 0 0 1920 1080;" xml:space="preserve">
<style type="text/css">
	.st0{clip-path:url(#SVGID_2_);fill:#281B47;}
	.st1{clip-path:url(#SVGID_2_);}
	.st2{fill:#9F86D7;}
	.st3{fill:#FFFC88;}
	.st4{fill:#FDF3A5;}
	.st5{fill:#489A87;}
	.st6{fill:#70E0C0;}
	.st7{fill:#00C08A;}
	.st8{fill:#30D3AD;}
	.st9{fill:#00AC6A;}
	.st10{fill:#FF6B00;}
	.st11{fill:#FF8F16;}
	.st12{fill:#FB5000;}
	.st13{fill:#F5A706;}
	.st14{fill:#D1A0E2;}
	.st15{fill:#DAB3E8;}
	.st16{fill:#EDD9F3;}
	.st17{fill:#00BAB2;}
	.st18{fill:#1ECECA;}
	.st19{fill:#66DBD4;}
	.st20{fill:#00A09C;}
	.st21{fill:#009345;}
</style>
<g>
	<defs>
		<rect id="SVGID_1_" width="1920" height="1080"/>
	</defs>
	<clipPath id="SVGID_2_">
		<use xlink:href="#SVGID_1_"  style="overflow:visible;"/>
	</clipPath>
	<rect class="st0" width="1920" height="1080"/>
	<g class="st1">
		<g>
			<path class="st2" d="M1803.4,828.1c-124.1,72.6-195.1,113.1-204.9,172.7c-9.8,59.6-215.7,61.8-269,65.6l-7.3,16.8h314.6
				c48.7-69,106.1-90.3,153.8-94.1c25.1-2,76.8-19.7,129.7-51.3v-235C1905.3,738.2,1872.8,787.5,1803.4,828.1z"/>
			<g>
				<path class="st2" d="M519.5-3.2c-27.4,55.3-93,192.1-140.5,180.3c-51.9-12.9-109.6,30.1-212,104.6
					C93.6,335.1,29.8,334.8-0.4,330.3v142.4c134.3,32.6,278.7-99.6,303-145.2c26-48.7,82.2-100.3,210.6-97.4
					C623.7,232.6,663.6,48.3,672.6-3.2H519.5z"/>
				<path class="st2" d="M1701.8,101.5C1584,85.4,1510,18.1,1510,18.1s-18-13.3-46.8-21.3h-83.8c-14.8,4.2-30.3,11-46.1,21.3
					c0,0-147.9,93.4-154.2-14.9v-6.3h-131.2c-4.7,52.6-8.3,198.7,98.7,195.6c130.4-3.7,157.9-56,200.6-63.5
					c42.6-7.5,95.3-31.1,257,28.6c107.4,39.7,239.6,13.5,316.3-8.6V63.5C1861.8,85.5,1773.3,111.4,1701.8,101.5z"/>
				<path class="st2" d="M1822.7,279.9c-136.9-18.7-178.3-24.9-178.3-24.9s-384.3-36.2-570.1,134.7c0,0-114.3,96.1-154.5,153.4
					c-40.2,57.4-153.2,102.3-153.2,102.3s-87.9,43.7-423.2-37.4c0,0-217.9-19.5-343.9-8.5v431.9c103.7-80.7,315.2-202.7,686.7-252.5
					c0,0,194.6,15,356.6-66.1c162-81.1,218.5-124.7,218.5-124.7l222.3-178.4c0,0,119.3-82.3,241.1-79.8c56.1,1.1,131,1.5,195.6,1.6
					v-43.3C1891.1,287.1,1858.2,284.7,1822.7,279.9z"/>
			</g>
		</g>
	</g>
	<g class="st1">
		<path class="st3" d="M1112.1,595.1c-3.4-2.6-4-7.5-1.4-10.9c2.6-3.3,7.4-4.2,11-1.4c3.7,2.9,4.1,7.5,1.4,11
			C1120.5,597.2,1115.8,597.9,1112.1,595.1z M1053.1,780.9c0.3,0.1,0.6,0.1,0.8,0.2c7.2,1.4,14.4,2.9,21.6,4.3
			c0.6,0.1,0.8,0.4,0.9,0.9c1.1,5.5,2.2,11,3.2,16.4c0.4,2,0.8,4,1.2,6c0.2-0.3,0.3-0.5,0.3-0.7c1.4-7.3,2.9-14.5,4.3-21.8
			c0.1-0.5,0.2-0.8,0.7-0.9c5.1-1,10.2-2,15.2-3c2.5-0.5,4.9-1,7.6-1.5c-0.4-0.1-0.6-0.2-0.8-0.2c-7.3-1.4-14.5-2.9-21.8-4.3
			c-0.6-0.1-0.9-0.4-1-1c-1.1-5.8-2.3-11.5-3.4-17.3c-0.3-1.7-0.7-3.4-1-5.1c-0.3,0.6-0.4,1.1-0.5,1.7c-1.4,6.9-2.7,13.9-4.1,20.8
			c-0.1,0.3-0.4,0.8-0.7,0.8c-5.2,1.1-10.4,2.1-15.7,3.1c-2.3,0.5-4.7,0.9-7,1.4C1053.1,780.8,1053.1,780.8,1053.1,780.9z
			 M1819.2,789.1c0.3,0.1,0.6,0.1,0.8,0.2c7.2,1.4,14.4,2.9,21.6,4.3c0.6,0.1,0.8,0.4,0.9,0.9c1.1,5.5,2.2,11,3.2,16.4
			c0.4,2,0.8,4,1.2,6c0.2-0.3,0.3-0.5,0.3-0.7c1.4-7.3,2.9-14.5,4.3-21.8c0.1-0.5,0.2-0.8,0.7-0.9c5.1-1,10.2-2,15.2-3
			c2.5-0.5,4.9-1,7.6-1.5c-0.4-0.1-0.6-0.2-0.8-0.2c-7.3-1.4-14.5-2.9-21.8-4.3c-0.6-0.1-0.9-0.4-1-1c-1.1-5.8-2.3-11.5-3.4-17.3
			c-0.3-1.7-0.7-3.4-1-5.1c-0.3,0.6-0.4,1.1-0.5,1.7c-1.4,6.9-2.7,13.9-4.1,20.8c-0.1,0.3-0.4,0.8-0.7,0.8
			c-5.2,1.1-10.4,2.1-15.7,3.1c-2.3,0.5-4.7,0.9-7,1.4C1819.2,789,1819.2,789,1819.2,789.1z M969.8,1005.5c0.3,0.1,0.6,0.1,0.8,0.2
			c7.2,1.4,14.4,2.9,21.6,4.3c0.6,0.1,0.8,0.4,0.9,0.9c1.1,5.5,2.2,11,3.2,16.4c0.4,2,0.8,4,1.2,6c0.2-0.3,0.3-0.5,0.3-0.7
			c1.4-7.3,2.9-14.5,4.3-21.8c0.1-0.5,0.2-0.8,0.7-0.9c5.1-1,10.2-2,15.2-3c2.5-0.5,4.9-1,7.6-1.5c-0.4-0.1-0.6-0.2-0.8-0.2
			c-7.3-1.4-14.5-2.9-21.8-4.3c-0.6-0.1-0.9-0.4-1-1c-1.1-5.8-2.3-11.5-3.4-17.3c-0.3-1.7-0.7-3.4-1-5.1c-0.3,0.6-0.4,1.1-0.5,1.7
			c-1.4,6.9-2.7,13.9-4.1,20.8c-0.1,0.3-0.4,0.8-0.7,0.8c-5.2,1.1-10.4,2.1-15.7,3.1c-2.3,0.5-4.7,0.9-7,1.4
			C969.8,1005.4,969.8,1005.5,969.8,1005.5z M856.7,109.5c0.3,0.1,0.6,0.1,0.8,0.2c7.2,1.4,14.4,2.9,21.6,4.3
			c0.6,0.1,0.8,0.4,0.9,0.9c1.1,5.5,2.2,11,3.2,16.4c0.4,2,0.8,4,1.2,6c0.2-0.3,0.3-0.5,0.3-0.7c1.4-7.3,2.9-14.5,4.3-21.8
			c0.1-0.5,0.2-0.8,0.7-0.9c5.1-1,10.2-2,15.2-3c2.5-0.5,4.9-1,7.6-1.5c-0.4-0.1-0.6-0.2-0.8-0.2c-7.3-1.4-14.5-2.9-21.8-4.3
			c-0.6-0.1-0.9-0.4-1-1c-1.1-5.8-2.3-11.5-3.4-17.3c-0.3-1.7-0.7-3.4-1-5.1c-0.3,0.6-0.4,1.1-0.5,1.7c-1.4,6.9-2.7,13.9-4.1,20.8
			c-0.1,0.3-0.4,0.8-0.7,0.8c-5.2,1.1-10.4,2.1-15.7,3.1c-2.3,0.5-4.7,0.9-7,1.4C856.7,109.3,856.7,109.4,856.7,109.5z
			 M1131.7,395.7c0.5,0.1,1,0.2,1.5,0.3c13.4,2.7,26.8,5.3,40.2,7.9c1.1,0.2,1.5,0.7,1.7,1.7c2,10.2,4,20.4,6,30.6
			c0.7,3.7,1.5,7.5,2.2,11.2c0.3-0.5,0.5-0.9,0.6-1.4c2.7-13.5,5.4-27,8-40.5c0.2-0.9,0.4-1.4,1.4-1.6c9.4-1.8,18.9-3.7,28.3-5.6
			c4.6-0.9,9.2-1.8,14.1-2.8c-0.7-0.2-1-0.4-1.4-0.4c-13.5-2.7-27.1-5.4-40.6-8c-1.2-0.2-1.7-0.7-1.9-1.9
			c-2.1-10.7-4.2-21.4-6.3-32.2c-0.6-3.2-1.3-6.3-1.9-9.5c-0.5,1-0.7,2.1-0.9,3.1c-2.6,12.9-5.1,25.8-7.7,38.7
			c-0.1,0.6-0.7,1.4-1.2,1.5c-9.7,2-19.4,3.9-29.1,5.8c-4.3,0.9-8.7,1.7-13,2.6C1131.7,395.5,1131.7,395.6,1131.7,395.7z
			 M1575.9,758.5c0.5,0.1,1,0.2,1.5,0.3c13.4,2.7,26.8,5.3,40.2,7.9c1.1,0.2,1.5,0.7,1.7,1.7c2,10.2,4,20.4,6,30.6
			c0.7,3.7,1.5,7.5,2.2,11.2c0.3-0.5,0.5-0.9,0.6-1.4c2.7-13.5,5.4-27,8-40.5c0.2-0.9,0.4-1.4,1.4-1.6c9.4-1.8,18.9-3.7,28.3-5.6
			c4.6-0.9,9.2-1.8,14.1-2.8c-0.7-0.2-1-0.4-1.4-0.4c-13.5-2.7-27.1-5.4-40.6-8c-1.2-0.2-1.7-0.7-1.9-1.9
			c-2.1-10.7-4.2-21.4-6.3-32.2c-0.6-3.2-1.3-6.3-1.9-9.5c-0.5,1-0.7,2.1-0.9,3.1c-2.6,12.9-5.1,25.8-7.7,38.7
			c-0.1,0.6-0.7,1.4-1.2,1.5c-9.7,2-19.4,3.9-29.1,5.8c-4.3,0.9-8.7,1.7-13,2.6C1576,758.3,1575.9,758.4,1575.9,758.5z M277.1,402.5
			c0.5,0.1,1,0.2,1.5,0.3c13.4,2.7,26.8,5.3,40.2,7.9c1.1,0.2,1.5,0.7,1.7,1.7c2,10.2,4,20.4,6,30.6c0.7,3.7,1.5,7.5,2.2,11.2
			c0.3-0.5,0.5-0.9,0.6-1.4c2.7-13.5,5.4-27,8-40.5c0.2-0.9,0.4-1.4,1.4-1.6c9.4-1.8,18.9-3.7,28.3-5.6c4.6-0.9,9.2-1.8,14.1-2.8
			c-0.7-0.2-1-0.4-1.4-0.4c-13.5-2.7-27.1-5.4-40.6-8c-1.2-0.2-1.7-0.7-1.9-1.9c-2.1-10.7-4.2-21.4-6.3-32.2
			c-0.6-3.2-1.3-6.3-1.9-9.5c-0.5,1-0.7,2.1-0.9,3.1c-2.6,12.9-5.1,25.8-7.7,38.7c-0.1,0.6-0.7,1.4-1.2,1.5
			c-9.7,2-19.4,3.9-29.1,5.8c-4.3,0.9-8.7,1.7-13,2.6C277.1,402.3,277.1,402.4,277.1,402.5z M1742.9,476.4c0.3,0.1,0.6,0.1,0.8,0.2
			c7.2,1.4,14.4,2.9,21.6,4.3c0.6,0.1,0.8,0.4,0.9,0.9c1.1,5.5,2.2,11,3.2,16.4c0.4,2,0.8,4,1.2,6c0.2-0.3,0.3-0.5,0.3-0.7
			c1.4-7.3,2.9-14.5,4.3-21.8c0.1-0.5,0.2-0.8,0.7-0.9c5.1-1,10.2-2,15.2-3c2.5-0.5,4.9-1,7.6-1.5c-0.4-0.1-0.6-0.2-0.8-0.2
			c-7.3-1.4-14.5-2.9-21.8-4.3c-0.6-0.1-0.9-0.4-1-1c-1.1-5.8-2.3-11.5-3.4-17.3c-0.3-1.7-0.7-3.4-1-5.1c-0.3,0.6-0.4,1.1-0.5,1.7
			c-1.4,6.9-2.7,13.9-4.1,20.8c-0.1,0.3-0.4,0.8-0.7,0.8c-5.2,1.1-10.4,2.1-15.7,3.1c-2.3,0.5-4.7,0.9-7,1.4
			C1742.9,476.2,1742.9,476.3,1742.9,476.4z M1836.4,82c0.3,0.1,0.6,0.1,0.8,0.2c7.2,1.4,14.4,2.9,21.6,4.3c0.6,0.1,0.8,0.4,0.9,0.9
			c1.1,5.5,2.2,11,3.2,16.4c0.4,2,0.8,4,1.2,6c0.2-0.3,0.3-0.5,0.3-0.7c1.4-7.3,2.9-14.5,4.3-21.8c0.1-0.5,0.2-0.8,0.7-0.9
			c5.1-1,10.2-2,15.2-3c2.5-0.5,4.9-1,7.6-1.5c-0.4-0.1-0.6-0.2-0.8-0.2c-7.3-1.4-14.5-2.9-21.8-4.3c-0.6-0.1-0.9-0.4-1-1
			c-1.1-5.8-2.3-11.5-3.4-17.3c-0.3-1.7-0.7-3.4-1-5.1c-0.3,0.6-0.4,1.1-0.5,1.7c-1.4,6.9-2.7,13.9-4.1,20.8
			c-0.1,0.3-0.4,0.8-0.7,0.8c-5.2,1.1-10.4,2.1-15.7,3.1c-2.3,0.5-4.7,0.9-7,1.4C1836.4,81.8,1836.4,81.9,1836.4,82z M686.1,314.9
			c0.3,0.1,0.6,0.1,0.8,0.2c7.2,1.4,14.4,2.9,21.6,4.3c0.6,0.1,0.8,0.4,0.9,0.9c1.1,5.5,2.2,11,3.2,16.4c0.4,2,0.8,4,1.2,6
			c0.2-0.3,0.3-0.5,0.3-0.7c1.4-7.3,2.9-14.5,4.3-21.8c0.1-0.5,0.2-0.8,0.7-0.9c5.1-1,10.2-2,15.2-3c2.5-0.5,4.9-1,7.6-1.5
			c-0.4-0.1-0.6-0.2-0.8-0.2c-7.3-1.4-14.5-2.9-21.8-4.3c-0.6-0.1-0.9-0.4-1-1c-1.1-5.8-2.3-11.5-3.4-17.3c-0.3-1.7-0.7-3.4-1-5.1
			c-0.3,0.6-0.4,1.1-0.5,1.7c-1.4,6.9-2.7,13.9-4.1,20.8c-0.1,0.3-0.4,0.8-0.7,0.8c-5.2,1.1-10.4,2.1-15.7,3.1
			c-2.3,0.5-4.7,0.9-7,1.4C686.1,314.8,686.1,314.8,686.1,314.9z M599.7,588.7c0.3,0.1,0.6,0.1,0.8,0.2c7.2,1.4,14.4,2.9,21.6,4.3
			c0.6,0.1,0.8,0.4,0.9,0.9c1.1,5.5,2.2,11,3.2,16.4c0.4,2,0.8,4,1.2,6c0.2-0.3,0.3-0.5,0.3-0.7c1.4-7.3,2.9-14.5,4.3-21.8
			c0.1-0.5,0.2-0.8,0.7-0.9c5.1-1,10.2-2,15.2-3c2.5-0.5,4.9-1,7.6-1.5c-0.4-0.1-0.6-0.2-0.8-0.2c-7.3-1.4-14.5-2.9-21.8-4.3
			c-0.6-0.1-0.9-0.4-1-1c-1.1-5.8-2.3-11.5-3.4-17.3c-0.3-1.7-0.7-3.4-1-5.1c-0.3,0.6-0.4,1.1-0.5,1.7c-1.4,6.9-2.7,13.9-4.1,20.8
			c-0.1,0.3-0.4,0.8-0.7,0.8c-5.2,1.1-10.4,2.1-15.7,3.1c-2.3,0.5-4.7,0.9-7,1.4C599.8,588.6,599.7,588.7,599.7,588.7z M266.5,657.4
			c0.3,0.1,0.6,0.1,0.8,0.2c7.2,1.4,14.4,2.9,21.6,4.3c0.6,0.1,0.8,0.4,0.9,0.9c1.1,5.5,2.2,11,3.2,16.4c0.4,2,0.8,4,1.2,6
			c0.2-0.3,0.3-0.5,0.3-0.7c1.4-7.3,2.9-14.5,4.3-21.8c0.1-0.5,0.2-0.8,0.7-0.9c5.1-1,10.2-2,15.2-3c2.5-0.5,4.9-1,7.6-1.5
			c-0.4-0.1-0.6-0.2-0.8-0.2c-7.3-1.4-14.5-2.9-21.8-4.3c-0.6-0.1-0.9-0.4-1-1c-1.1-5.8-2.3-11.5-3.4-17.3c-0.3-1.7-0.7-3.4-1-5.1
			c-0.3,0.6-0.4,1.1-0.5,1.7c-1.4,6.9-2.7,13.9-4.1,20.8c-0.1,0.3-0.4,0.8-0.7,0.8c-5.2,1.1-10.4,2.1-15.7,3.1
			c-2.3,0.5-4.7,0.9-7,1.4C266.5,657.3,266.5,657.3,266.5,657.4z M1341.1,117.2c0.3,0.1,0.6,0.1,0.8,0.2c7.2,1.4,14.4,2.9,21.6,4.3
			c0.6,0.1,0.8,0.4,0.9,0.9c1.1,5.5,2.2,11,3.2,16.4c0.4,2,0.8,4,1.2,6c0.2-0.3,0.3-0.5,0.3-0.7c1.4-7.3,2.9-14.5,4.3-21.8
			c0.1-0.5,0.2-0.8,0.7-0.9c5.1-1,10.2-2,15.2-3c2.5-0.5,4.9-1,7.6-1.5c-0.4-0.1-0.6-0.2-0.8-0.2c-7.3-1.4-14.5-2.9-21.8-4.3
			c-0.6-0.1-0.9-0.4-1-1c-1.1-5.8-2.3-11.5-3.4-17.3c-0.3-1.7-0.7-3.4-1-5.1c-0.3,0.6-0.4,1.1-0.5,1.7c-1.4,6.9-2.7,13.9-4.1,20.8
			c-0.1,0.3-0.4,0.8-0.7,0.8c-5.2,1.1-10.4,2.1-15.7,3.1c-2.3,0.5-4.7,0.9-7,1.4C1341.1,117.1,1341.1,117.1,1341.1,117.2z
			 M1506.2,469.4c0.3,0.1,0.6,0.1,0.8,0.2c7.2,1.4,14.4,2.9,21.6,4.3c0.6,0.1,0.8,0.4,0.9,0.9c1.1,5.5,2.2,11,3.2,16.4
			c0.4,2,0.8,4,1.2,6c0.2-0.3,0.3-0.5,0.3-0.7c1.4-7.3,2.9-14.5,4.3-21.8c0.1-0.5,0.2-0.8,0.7-0.9c5.1-1,10.2-2,15.2-3
			c2.5-0.5,4.9-1,7.6-1.5c-0.4-0.1-0.6-0.2-0.8-0.2c-7.3-1.4-14.5-2.9-21.8-4.3c-0.6-0.1-0.9-0.4-1-1c-1.1-5.8-2.3-11.5-3.4-17.3
			c-0.3-1.7-0.7-3.4-1-5.1c-0.3,0.6-0.4,1.1-0.5,1.7c-1.4,6.9-2.7,13.9-4.1,20.8c-0.1,0.3-0.4,0.8-0.7,0.8
			c-5.2,1.1-10.4,2.1-15.7,3.1c-2.3,0.5-4.7,0.9-7,1.4C1506.2,469.3,1506.2,469.3,1506.2,469.4z M1129.2,177.7
			c0.3,0.1,0.6,0.1,0.8,0.2c7.2,1.4,14.4,2.9,21.6,4.3c0.6,0.1,0.8,0.4,0.9,0.9c1.1,5.5,2.2,11,3.2,16.4c0.4,2,0.8,4,1.2,6
			c0.2-0.3,0.3-0.5,0.3-0.7c1.4-7.3,2.9-14.5,4.3-21.8c0.1-0.5,0.2-0.8,0.7-0.9c5.1-1,10.2-2,15.2-3c2.5-0.5,4.9-1,7.6-1.5
			c-0.4-0.1-0.6-0.2-0.8-0.2c-7.3-1.4-14.5-2.9-21.8-4.3c-0.6-0.1-0.9-0.4-1-1c-1.1-5.8-2.3-11.5-3.4-17.3c-0.3-1.7-0.7-3.4-1-5.1
			c-0.3,0.6-0.4,1.1-0.5,1.7c-1.4,6.9-2.7,13.9-4.1,20.8c-0.1,0.3-0.4,0.8-0.7,0.8c-5.2,1.1-10.4,2.1-15.7,3.1
			c-2.3,0.5-4.7,0.9-7,1.4C1129.2,177.6,1129.2,177.6,1129.2,177.7z M554.1,152.9c0.3,0.1,0.6,0.1,0.8,0.2
			c7.2,1.4,14.4,2.9,21.6,4.3c0.6,0.1,0.8,0.4,0.9,0.9c1.1,5.5,2.2,11,3.2,16.4c0.4,2,0.8,4,1.2,6c0.2-0.3,0.3-0.5,0.3-0.7
			c1.4-7.3,2.9-14.5,4.3-21.8c0.1-0.5,0.2-0.8,0.7-0.9c5.1-1,10.2-2,15.2-3c2.5-0.5,4.9-1,7.6-1.5c-0.4-0.1-0.6-0.2-0.8-0.2
			c-7.3-1.4-14.5-2.9-21.8-4.3c-0.6-0.1-0.9-0.4-1-1c-1.1-5.8-2.3-11.5-3.4-17.3c-0.3-1.7-0.7-3.4-1-5.1c-0.3,0.6-0.4,1.1-0.5,1.7
			c-1.4,6.9-2.7,13.9-4.1,20.8c-0.1,0.3-0.4,0.8-0.7,0.8c-5.2,1.1-10.4,2.1-15.7,3.1c-2.3,0.5-4.7,0.9-7,1.4
			C554.2,152.8,554.2,152.9,554.1,152.9z M829.3,725.3c0.3,0.1,0.6,0.1,0.8,0.2c7.2,1.4,14.4,2.9,21.6,4.3c0.6,0.1,0.8,0.4,0.9,0.9
			c1.1,5.5,2.2,11,3.2,16.4c0.4,2,0.8,4,1.2,6c0.2-0.3,0.3-0.5,0.3-0.7c1.4-7.3,2.9-14.5,4.3-21.8c0.1-0.5,0.2-0.8,0.7-0.9
			c5.1-1,10.2-2,15.2-3c2.5-0.5,4.9-1,7.6-1.5c-0.4-0.1-0.6-0.2-0.8-0.2c-7.3-1.4-14.5-2.9-21.8-4.3c-0.6-0.1-0.9-0.4-1-1
			c-1.1-5.8-2.3-11.5-3.4-17.3c-0.3-1.7-0.7-3.4-1-5.1c-0.3,0.6-0.4,1.1-0.5,1.7c-1.4,6.9-2.7,13.9-4.1,20.8
			c-0.1,0.3-0.4,0.8-0.7,0.8c-5.2,1.1-10.4,2.1-15.7,3.1c-2.3,0.5-4.7,0.9-7,1.4C829.3,725.2,829.3,725.2,829.3,725.3z
			 M1395.5,965.5c0.3,0.1,0.6,0.1,0.8,0.2c7.2,1.4,14.4,2.9,21.6,4.3c0.6,0.1,0.8,0.4,0.9,0.9c1.1,5.5,2.2,11,3.2,16.4
			c0.4,2,0.8,4,1.2,6c0.2-0.3,0.3-0.5,0.3-0.7c1.4-7.3,2.9-14.5,4.3-21.8c0.1-0.5,0.2-0.8,0.7-0.9c5.1-1,10.2-2,15.2-3
			c2.5-0.5,4.9-1,7.6-1.5c-0.4-0.1-0.6-0.2-0.8-0.2c-7.3-1.4-14.5-2.9-21.8-4.3c-0.6-0.1-0.9-0.4-1-1c-1.1-5.8-2.3-11.5-3.4-17.3
			c-0.3-1.7-0.7-3.4-1-5.1c-0.3,0.6-0.4,1.1-0.5,1.7c-1.4,6.9-2.7,13.9-4.1,20.8c-0.1,0.3-0.4,0.8-0.7,0.8
			c-5.2,1.1-10.4,2.1-15.7,3.1c-2.3,0.5-4.7,0.9-7,1.4C1395.5,965.4,1395.5,965.4,1395.5,965.5z M256.9,995.5
			c0.3,0.1,0.6,0.1,0.8,0.2c7.2,1.4,14.4,2.9,21.6,4.3c0.6,0.1,0.8,0.4,0.9,0.9c1.1,5.5,2.2,11,3.2,16.4c0.4,2,0.8,4,1.2,6
			c0.2-0.3,0.3-0.5,0.3-0.7c1.4-7.3,2.9-14.5,4.3-21.8c0.1-0.5,0.2-0.8,0.7-0.9c5.1-1,10.2-2,15.2-3c2.5-0.5,4.9-1,7.6-1.5
			c-0.4-0.1-0.6-0.2-0.8-0.2c-7.3-1.4-14.5-2.9-21.8-4.3c-0.6-0.1-0.9-0.4-1-1c-1.1-5.8-2.3-11.5-3.4-17.3c-0.3-1.7-0.7-3.4-1-5.1
			c-0.3,0.6-0.4,1.1-0.5,1.7c-1.4,6.9-2.7,13.9-4.1,20.8c-0.1,0.3-0.4,0.8-0.7,0.8c-5.2,1.1-10.4,2.1-15.7,3.1
			c-2.3,0.5-4.7,0.9-7,1.4C256.9,995.4,256.9,995.4,256.9,995.5z M27.6,100.3c0.3,0.1,0.6,0.1,0.8,0.2c7.2,1.4,14.4,2.9,21.6,4.3
			c0.6,0.1,0.8,0.4,0.9,0.9c1.1,5.5,2.2,11,3.2,16.4c0.4,2,0.8,4,1.2,6c0.2-0.3,0.3-0.5,0.3-0.7c1.4-7.3,2.9-14.5,4.3-21.8
			c0.1-0.5,0.2-0.8,0.7-0.9c5.1-1,10.2-2,15.2-3c2.5-0.5,4.9-1,7.6-1.5c-0.4-0.1-0.6-0.2-0.8-0.2c-7.3-1.4-14.5-2.9-21.8-4.3
			c-0.6-0.1-0.9-0.4-1-1c-1.1-5.8-2.3-11.5-3.4-17.3c-0.3-1.7-0.7-3.4-1-5.1c-0.3,0.6-0.4,1.1-0.5,1.7c-1.4,6.9-2.7,13.9-4.1,20.8
			c-0.1,0.3-0.4,0.8-0.7,0.8c-5.2,1.1-10.4,2.1-15.7,3.1c-2.3,0.5-4.7,0.9-7,1.4C27.6,100.2,27.6,100.2,27.6,100.3z M234.9,74.6
			c0.3,0.1,0.6,0.1,0.8,0.2c7.2,1.4,14.4,2.9,21.6,4.3c0.6,0.1,0.8,0.4,0.9,0.9c1.1,5.5,2.2,11,3.2,16.4c0.4,2,0.8,4,1.2,6
			c0.2-0.3,0.3-0.5,0.3-0.7c1.4-7.3,2.9-14.5,4.3-21.8c0.1-0.5,0.2-0.8,0.7-0.9c5.1-1,10.2-2,15.2-3c2.5-0.5,4.9-1,7.6-1.5
			c-0.4-0.1-0.6-0.2-0.8-0.2c-7.3-1.4-14.5-2.9-21.8-4.3c-0.6-0.1-0.9-0.4-1-1c-1.1-5.8-2.3-11.5-3.4-17.3c-0.3-1.7-0.7-3.4-1-5.1
			c-0.3,0.6-0.4,1.1-0.5,1.7c-1.4,6.9-2.7,13.9-4.1,20.8c-0.1,0.3-0.4,0.8-0.7,0.8c-5.2,1.1-10.4,2.1-15.7,3.1
			c-2.3,0.5-4.7,0.9-7,1.4C234.9,74.5,234.9,74.5,234.9,74.6z M998.4,369.8c-3.5,0-6.4,2.9-6.4,6.4c0,3.5,2.9,6.4,6.4,6.4
			s6.4-2.9,6.4-6.4C1004.8,372.7,1002,369.8,998.4,369.8z M1457,575.3c-3.5,0-6.4,2.9-6.4,6.4c0,3.5,2.9,6.4,6.4,6.4
			s6.4-2.9,6.4-6.4C1463.4,578.1,1460.6,575.3,1457,575.3z M1130.5,874.3c-3.5,0-6.4,2.9-6.4,6.4c0,3.5,2.9,6.4,6.4,6.4
			s6.4-2.9,6.4-6.4C1136.9,877.1,1134,874.3,1130.5,874.3z M345.4,899.9c-3.5,0-6.4,2.9-6.4,6.4c0,3.5,2.9,6.4,6.4,6.4
			s6.4-2.9,6.4-6.4C351.8,902.8,348.9,899.9,345.4,899.9z M378.4,250.6c-3.5,0-6.4,2.9-6.4,6.4c0,3.5,2.9,6.4,6.4,6.4
			s6.4-2.9,6.4-6.4C384.8,253.4,381.9,250.6,378.4,250.6z M95.9,83.6c-3.5,0-6.4,2.9-6.4,6.4s2.9,6.4,6.4,6.4c3.5,0,6.4-2.9,6.4-6.4
			S99.4,83.6,95.9,83.6z M1535,133.2c-3.5,0-6.4,2.9-6.4,6.4c0,3.5,2.9,6.4,6.4,6.4s6.4-2.9,6.4-6.4
			C1541.4,136,1538.5,133.2,1535,133.2z M1810.1,353.3c-3.5,0-6.4,2.9-6.4,6.4c0,3.5,2.9,6.4,6.4,6.4s6.4-2.9,6.4-6.4
			C1816.6,356.2,1813.7,353.3,1810.1,353.3z"/>
		<g>
			<polygon class="st4" points="487.5,362.6 620.1,451.7 644,427.8 			"/>
			<path class="st3" d="M653.3,444.2c0,10.4-8.5,18.9-18.9,18.9c-4.4,0-8.4-1.5-11.6-4c-4.4-3.5-7.3-8.8-7.3-14.9
				c0-10.4,8.5-18.9,18.9-18.9C644.9,425.3,653.3,433.8,653.3,444.2z"/>
		</g>
		<g>
			<polygon class="st4" points="1482.9,555.2 1615.5,644.3 1639.4,620.4 			"/>
			<path class="st3" d="M1648.7,636.8c0,10.4-8.5,18.9-18.9,18.9c-4.4,0-8.4-1.5-11.6-4c-4.4-3.5-7.3-8.8-7.3-14.9
				c0-10.4,8.5-18.9,18.9-18.9S1648.7,626.4,1648.7,636.8z"/>
		</g>
		<g>
			<polygon class="st4" points="751.7,868.9 884.3,958 908.2,934.1 			"/>
			<path class="st3" d="M917.5,950.5c0,10.4-8.5,18.9-18.9,18.9c-4.4,0-8.4-1.5-11.6-4c-4.4-3.5-7.3-8.8-7.3-14.9
				c0-10.4,8.5-18.9,18.9-18.9C909,931.6,917.5,940,917.5,950.5z"/>
		</g>
	</g>
	<g class="st1">
		<g>
			<g>
				<path class="st5" d="M1789.5,223.1c-0.9-13.1-3.4-25.8-7.3-37.8C1760.7,120,1697.2,75,1625.5,79.8c-10.7,0.7-21.1,2.5-31,5.3
					c-20.3,5.6-38.7,15.3-54.6,27.9c-11.4,9.1-21.5,19.9-30,31.8c-6.8,9.6-12.5,20-16.9,31.1c-8.4,20.9-12.4,43.9-10.8,67.8
					c0.5,7.5,1.6,14.9,3.1,22.1c15.8,73.6,83.6,126.3,160.8,121.1c14.3-1,28-3.9,40.9-8.4c16-5.6,30.6-13.8,43.6-23.9
					c17.1-13.4,31.2-30.3,41.4-49.5c11.3-21.3,17.7-45.5,17.8-71C1789.8,230.5,1789.7,226.8,1789.5,223.1z"/>
				<g>
					<path class="st6" d="M1782.1,185.3C1760.7,120,1697.2,75,1625.5,79.8c-10.7,0.7-21.1,2.5-31,5.3c12.8,16.8,30.4,30.5,48.3,42.3
						C1685.1,155.2,1732.5,176.3,1782.1,185.3z"/>
					<path class="st7" d="M1789.8,234.2c-77.3-17.1-151.3-48.8-216.9-93.2c-12-8.1-23.9-16.9-33-28c-11.4,9.1-21.5,19.9-30,31.8
						c69.4,77.2,161.8,133.6,262.1,160.4C1783.3,283.9,1789.7,259.7,1789.8,234.2z"/>
					<path class="st8" d="M1789.8,234.2c0-3.7-0.1-7.4-0.3-11.1c-0.9-13.1-3.4-25.8-7.3-37.8c-49.7-9-97-30.1-139.3-57.9
						c-17.9-11.8-35.5-25.4-48.3-42.3c-20.3,5.6-38.7,15.3-54.6,27.9c9.1,11.1,21.1,19.9,33,28
						C1638.5,185.3,1712.5,217.1,1789.8,234.2z"/>
					<path class="st9" d="M1510,144.8c-6.8,9.6-12.5,20-16.9,31.1c23.2,41.5,57.5,77.1,96.2,105.2c43.2,31.3,91.7,54.2,141.5,73.6
						c17.1-13.4,31.2-30.3,41.4-49.5C1671.8,278.4,1579.4,222,1510,144.8z"/>
					<path class="st7" d="M1493,175.9c-8.4,20.9-12.4,43.9-10.8,67.8c0.5,7.5,1.6,14.9,3.1,22.1c24.4,25.9,53.5,47.7,84.6,65.1
						c36.9,20.7,76.5,35.6,117.1,47.7c16-5.6,30.6-13.8,43.6-23.9c-49.8-19.4-98.3-42.3-141.5-73.6
						C1550.5,253,1516.2,217.4,1493,175.9z"/>
					<path class="st8" d="M1485.4,265.9c15.8,73.6,83.6,126.3,160.8,121.1c14.3-1,28-3.9,40.9-8.4c-40.6-12-80.2-27-117.1-47.7
						C1538.9,313.5,1509.8,291.7,1485.4,265.9z"/>
				</g>
				<path class="st3" d="M1780.8,287.2c-1.1,3-2.3,5.9-3.6,8.8c68.7,57.3,111.2,101.4,104.2,110.9c-7,9.5-61-17.5-135.4-65.5
					c-36.4-23.4-77.6-51.9-120.7-83.6c-46.8-34.4-89.4-68-124.3-97.6c-62.8-53.2-100.9-93.5-94.2-102.5
					c6.7-9.1,57.1,15.6,127.4,60.4c2.4-2.1,4.8-4.1,7.2-6.1c-96.6-61.1-169.6-94.2-181-78.7c-11.5,15.6,42.5,76,130.4,150.6
					c35.1,29.8,75.6,61.8,119.6,94.2c40.4,29.7,79.6,56.7,115.9,80c102.1,65.7,180.4,101.9,192.2,85.8
					C1930.2,427.9,1873,364.6,1780.8,287.2z"/>
			</g>
		</g>
	</g>
	<g class="st1">
		<g>
			<g>
				<path class="st10" d="M472.4,881.3c-13.7-69.1-54.4-132.8-118.3-174c-89.6-57.7-200.6-55.6-286-3.7
					c-33.8,20.5-63.6,48.8-86.4,84.3c-2.6,4-5.1,8.1-7.4,12.2c-31.1,54.3-41.2,115.3-32.6,173.4c5.4,35.9,17.9,70.6,37.1,101.8
					c18.3,29.6,42.5,56.1,72.4,77.5c3.6,2.6,7.2,5.1,11,7.5c30.8,19.9,64.2,32.6,98.2,38.7c52.9,9.5,107.3,2.8,156-18.5
					c45.5-19.9,86-52.7,115.6-96.9c0.9-1.3,1.7-2.6,2.6-3.9c25.3-39.3,39.1-82.8,42.3-126.4C478.6,929.1,477.1,904.9,472.4,881.3z"
					/>
				<g>
					<path class="st10" d="M379.9,1080.6c-93.7-17.2-101.7-114.2-162.6-165.5c-33.1-27.9-79.5-42.6-125.2-39.8
						c-45.7,2.8-90,23-120,54.5c-12.5,13.1-22.4,27.9-30.4,43.5c5.4,35.9,17.9,70.6,37.1,101.8c5.4-27.6,18.8-53.8,37.8-75.2
						c19.6-22.2,47.6-40.3,77.9-38.9c31.4,1.4,58.1,23.5,75.3,48.8c17.2,25.3,27.3,54.4,42.3,80.9c17.9,31.8,43.4,60.3,76.2,78
						c8.9,4.8,18.3,8.7,28.1,11.7c45.5-19.9,86-52.7,115.6-96.9C414.6,1084.2,397,1083.8,379.9,1080.6z"/>
					<path class="st11" d="M212.2,1090.8c-15-26.6-25.1-55.6-42.3-80.9c-17.2-25.3-43.9-47.3-75.3-48.8
						c-30.3-1.4-58.2,16.7-77.9,38.9c-19,21.4-32.4,47.6-37.8,75.2c18.3,29.6,42.5,56.1,72.4,77.5c-1.7-16-1.1-32.2,1.9-48.1
						c3-16,11.4-34.4,31-38.4c11.4-2.3,23.8,1.3,32.6,7.5c8.8,6.2,14.6,14.8,19.2,23.5c5,9.5,8.6,19.5,10.9,29.6
						c4.1,18.2,3.8,37,8,55.2c1.3,5.7,3.2,11.4,5.7,16.9c52.9,9.5,107.3,2.8,156-18.5c-9.8-3-19.2-6.9-28.1-11.7
						C255.6,1151,230.1,1122.5,212.2,1090.8z"/>
					<path class="st10" d="M146.8,1126.7c-2.3-10.2-6-20.1-10.9-29.6c-4.5-8.7-10.3-17.2-19.2-23.5c-8.8-6.2-21.2-9.8-32.6-7.5
						c-19.6,4-28,22.4-31,38.4c-2.9,15.9-3.5,32.1-1.9,48.1c3.6,2.6,7.2,5.1,11,7.5c30.8,19.9,64.2,32.6,98.2,38.7
						c-2.5-5.5-4.3-11.2-5.7-16.9C150.6,1163.7,150.9,1145,146.8,1126.7z"/>
					<path class="st10" d="M329.2,805.9c-51-47-109.2-91.5-177.8-102.1c-27.5-4.3-55.4-2.8-83.2-0.2c-33.8,20.5-63.6,48.8-86.4,84.3
						c-2.6,4-5.1,8.1-7.4,12.2c74-22.4,161-16.8,219.3,14.5c56.2,30.1,93.4,86.9,150.3,115c41.1,20.2,87.3,26.4,133,23.8
						c1.7-24.2,0.2-48.4-4.5-71.9c-27.4-4.2-54.4-10.5-78.5-23.8C369.6,844.2,349.5,824.6,329.2,805.9z"/>
					<path class="st12" d="M343.9,929.5c-57-28.1-94.2-84.8-150.3-115C135.3,783.3,48.3,777.7-25.7,800
						c-31.1,54.3-41.2,115.3-32.6,173.4c8-15.6,17.9-30.4,30.4-43.5c30-31.5,74.3-51.7,120-54.5c45.7-2.8,92.1,11.9,125.2,39.8
						c60.8,51.3,68.9,148.3,162.6,165.5c17.1,3.1,34.6,3.6,52.1,2.9c0.9-1.3,1.7-2.6,2.6-3.9c25.3-39.3,39.1-82.8,42.3-126.4
						C431.2,955.8,385,949.7,343.9,929.5z"/>
					<path class="st11" d="M354.1,707.3c-89.6-57.7-200.6-55.6-286-3.7c27.8-2.6,55.7-4,83.2,0.2c68.6,10.6,126.7,55.1,177.8,102.1
						c20.4,18.7,40.4,38.4,64.7,51.7c24.1,13.2,51.2,19.6,78.5,23.8C458.7,812.2,418,748.5,354.1,707.3z"/>
				</g>
			</g>
		</g>
	</g>
	<g class="st1">
		<g>
			<g>
				<path class="st13" d="M1445.4,717.6c-4.7-14.6-12.9-28.4-24.6-40.1c-39.3-39.3-103-39.3-142.3,0c-1.2,1.2-2.4,2.5-3.6,3.7
					c-9.9,11-17,23.6-21.2,36.9c-4.6,14.6-5.9,30.1-3.7,45.2c2.5,16.9,9.3,33.3,20.4,47.4c2.5,3.1,5.1,6.2,8,9.1
					c31,31,77.1,37.5,114.5,19.7c10-4.8,19.5-11.3,27.8-19.7c4-4,7.6-8.2,10.7-12.7c9.6-13.4,15.6-28.7,17.8-44.4
					C1451.4,747.7,1450.1,732.2,1445.4,717.6z"/>
				<g>
					<path class="st14" d="M1332.2,807.9c-19.5-8.3-42-5.5-61.7,2.9c2.5,3.1,5.1,6.2,8,9.1c31,31,77.1,37.5,114.5,19.7
						c-14.5-4.8-28.5-12.4-41.5-20.6C1345.3,814.9,1339,810.8,1332.2,807.9z"/>
					<path class="st15" d="M1332.2,715.1c8.9,3.8,17,9.1,25.2,14.3c27.9,17.6,59.3,33.3,91.9,33.4c2.1-15.1,0.8-30.6-3.9-45.2
						c-27-0.5-53.1-14.2-76.3-29.4c-6.9-4.5-13.8-9.3-21.3-12.6c-23.1-10.2-50-5.7-72.8,5.7c-9.9,11-17,23.6-21.2,36.9
						C1278.9,707.8,1307.4,704.6,1332.2,715.1z"/>
					<path class="st14" d="M1347.8,675.6c7.5,3.3,14.4,8.1,21.3,12.6c23.2,15.2,49.2,28.9,76.3,29.4c-4.7-14.6-12.9-28.4-24.6-40.1
						c-39.3-39.3-103-39.3-142.3,0c-1.2,1.2-2.4,2.5-3.6,3.7C1297.7,669.9,1324.6,665.4,1347.8,675.6z"/>
					<path class="st14" d="M1328.1,760.5c-24.7-10.4-53-7.3-78.1,2.9c2.5,16.9,9.3,33.3,20.4,47.4c19.7-8.4,42.2-11.1,61.7-2.9
						c6.9,2.9,13.1,7,19.4,11c13,8.2,26.9,15.8,41.5,20.6c10-4.8,19.5-11.3,27.8-19.7c4-4,7.6-8.2,10.7-12.7
						c-27.7-3.6-54.2-17.3-78.2-32.4C1345.2,769.6,1337,764.2,1328.1,760.5z"/>
					<path class="st16" d="M1357.4,729.4c-8.2-5.1-16.3-10.5-25.2-14.3c-24.8-10.5-53.2-7.3-78.4,3.1c-4.6,14.6-5.9,30.1-3.7,45.2
						c25.1-10.2,53.4-13.3,78.1-2.9c8.9,3.8,17,9.1,25.2,14.3c24,15.1,50.5,28.8,78.2,32.4c9.6-13.4,15.6-28.7,17.8-44.4
						C1416.7,762.7,1385.3,747,1357.4,729.4z"/>
				</g>
			</g>
		</g>
	</g>
	<g class="st1">
		<g>
			<g>
				<g>
					<g>
						<g>
							<path class="st17" d="M389.5,160.9c-0.4-13.5-3-27-7.7-39.8c-5.9-16-15.2-31.1-28-44c-0.3-0.3-0.6-0.6-0.9-0.9
								c-48.1-48.1-125.7-48.8-174.6-1.9c-0.7,0.6-1.3,1.3-2,1.9c-7.8,7.8-14.3,16.3-19.6,25.4c-9.6,16.5-15.2,34.7-16.6,53.1
								c-1.6,20,1.7,40.4,9.7,59.1c6.1,14.2,14.9,27.5,26.5,39c1.6,1.6,3.3,3.2,5,4.7c49,44,124.5,42.4,171.6-4.7
								c4-4,7.6-8.2,11-12.5c11-14.3,18.4-30.4,22.3-47.2C388.7,182.5,389.8,171.7,389.5,160.9z"/>
							<g>
								<path class="st18" d="M349.3,240.6c-12.6-1.6-25.2-3.7-33.3,8.1c-6.2,9.1-9.9,18.6-23.4,17.6c-16-1.1-29.9-11.8-44.2-17.6
									c-15.2-6.2-31.7-5.6-46.7,0.9c-6.5,2.8-13.4,6-20.5,8c49,44,124.5,42.4,171.6-4.7c4-4,7.6-8.2,11-12.5
									C359.2,241.2,354.3,241.2,349.3,240.6z"/>
								<path class="st18" d="M165.1,109.6c13.7,6.4,29.1,1.5,42.7-2.2c15.8-4.2,32.1-2.1,45.9,6.8c13,8.4,24.8,21.6,40.3,25.4
									c13,3.2,18.2-5.9,25.8-14.2c9.9-10.8,21.8-6.6,33.9-2.8c9.8,3,19.5,3.1,28-1.4c-5.9-16-15.2-31.1-28-44
									c-5,1.6-10.6,1.6-16.3,0.3c-9.9-2.1-19.7-4.6-26.8,4.7c-5.5,7.2-9,14.8-19.6,13.2c-12.6-1.9-23-11.6-34-17.4
									c-11.7-6.1-24.8-6.6-37.1-2.1c-10.6,3.9-22.6,8.9-34,4.8c-2.6-0.9-5.5-3.3-7.8-6.3c-0.7,0.6-1.3,1.3-2,1.9
									c-7.8,7.8-14.3,16.3-19.6,25.4C159.1,105.2,162.2,108.2,165.1,109.6z"/>
								<path class="st19" d="M186,80.6c11.4,4.1,23.3-0.9,34-4.8c12.3-4.5,25.4-4,37.1,2.1c11,5.8,21.3,15.4,34,17.4
									c10.6,1.6,14.1-6,19.6-13.2c7.1-9.3,16.9-6.8,26.8-4.7c5.7,1.2,11.3,1.3,16.3-0.3c-0.3-0.3-0.6-0.6-0.9-0.9
									c-48.1-48.1-125.7-48.8-174.6-1.9C180.5,77.3,183.4,79.7,186,80.6z"/>
								<path class="st17" d="M359.5,196.5c-14.1-2.2-28.2-5-37.5,8.7c-7.2,10.6-11.5,21.6-26.6,20.2c-18-1.7-33.3-14.6-49.3-21.9
									c-16.9-7.7-35.6-7.4-52.5-0.1c-13.6,5.8-28.6,13.1-43.8,10.4c6.1,14.2,14.9,27.5,26.5,39c1.6,1.6,3.3,3.2,5,4.7
									c7.1-2,14-5.2,20.5-8c15-6.5,31.6-7.1,46.7-0.9c14.3,5.9,28.1,16.5,44.2,17.6c13.5,1,17.2-8.5,23.4-17.6
									c8.1-11.8,20.7-9.7,33.3-8.1c5,0.6,9.9,0.6,14.5-0.2c11-14.3,18.4-30.4,22.3-47.2C378.3,197.2,369.1,198,359.5,196.5z"/>
								<path class="st17" d="M353.6,122.6c-12.1-3.7-24-7.9-33.9,2.8c-7.6,8.3-12.8,17.4-25.8,14.2c-15.5-3.8-27.2-17-40.3-25.4
									c-13.8-8.9-30.1-11-45.9-6.8c-13.7,3.6-29,8.5-42.7,2.2c-2.9-1.3-6.1-4.4-8.5-8c-9.6,16.5-15.2,34.7-16.6,53.1
									c0.3,0.1,0.5,0.2,0.8,0.4c16.4,6.8,34.2,0.3,50.1-4.7c18.3-5.7,37.6-4.1,54.2,5.7c15.7,9.2,30.2,24.1,48.6,27.9
									c15.5,3.1,21.1-7.8,29.6-18c11.1-13.1,25.3-8.8,39.7-5c9.2,2.4,18.1,2.7,26.3-0.1c-0.4-13.5-3-27-7.7-39.8
									C373.2,125.7,363.5,125.6,353.6,122.6z"/>
								<path class="st20" d="M363.1,161c-14.4-3.8-28.6-8.1-39.7,5c-8.5,10.1-14.2,21.1-29.6,18c-18.4-3.7-32.9-18.6-48.6-27.9
									c-16.7-9.8-35.9-11.4-54.2-5.7c-15.9,5-33.7,11.5-50.1,4.7c-0.3-0.1-0.5-0.2-0.8-0.4c-1.6,20,1.7,40.4,9.7,59.1
									c15.1,2.7,30.2-4.5,43.8-10.4c17-7.3,35.6-7.6,52.5,0.1c16,7.3,31.3,20.1,49.3,21.9c15.1,1.5,19.4-9.6,26.6-20.2
									c9.3-13.7,23.4-10.9,37.5-8.7c9.6,1.5,18.8,0.7,26.6-3.4c2.5-10.6,3.6-21.4,3.2-32.2C381.2,163.7,372.2,163.4,363.1,161z"/>
							</g>
							<g>
								<path class="st21" d="M156.4,212.5c3.2-4,9.3-6.1,10-11.2c0.8-6.4-8.3-11.2-7-17.6c0.6-3.1,3.8-5.8,2.9-8.8
									c-0.7-2.5-3.8-3.5-6.4-3.2c-2.6,0.2-5.1,1.3-7.7,1.1c-2.7-0.2-5.2-1.6-7.9-2.1c-0.1,0-0.1,0-0.2,0
									c0.8,16.3,4.8,32.5,12,47.6C153.9,216.9,154.8,214.4,156.4,212.5z"/>
								<path class="st21" d="M175,90.7c2.1,2.4,4.6,4.5,7.4,6c0.6,0.3,1.3,0.7,1.9,0.6c1-0.1,1.5-1.1,1.7-2
									c0.4-2.6-0.9-5.5-1.6-8.2c-0.8-2.8-0.8-6.1,1.5-7.3c1.1,3,5.2,3.7,7.9,3c2.8-0.7,5.5-2.3,8.5-1.3c3,1,5,4.1,6.7,6.8
									c3.6,5.7,9,11.9,15.1,11.8c2.8-0.1,5.4-1.5,8.2-0.9c4.5,0.9,7.2,6,11,8.9c5.2,4.1,12,3.8,17.9,3.3c4-0.4,8-0.7,12-1.1
									c1.7-0.1,3.5-0.3,4.7-1.4c2-1.9,1.3-5.4,0.5-8.4c-2-7.6-4-15.2-6-22.8c-1.1-4.1-2.2-8.4-4.8-11.9c-1.8-2.5-4.2-4.5-6.1-7
									c-2-2.7-3.2-5.9-5-8.7c-2.4-3.7-5.6-6.7-9.2-9.2c-26,3.6-51,15.4-71,35.4c-5,5-9.5,10.4-13.5,16
									C167.2,93.6,171.8,93.1,175,90.7z"/>
								<path class="st21" d="M389.3,156c-2.4,0.2-4.9,0.2-7.3-0.2c-11.4-1.7-21.2-11.2-32.7-10.6c-3.7,0.2-8.6,0.7-9.9-2.8
									c-2.4,3-5.7,5.2-9.3,6.4c-4.4,1.4-6.6,6.4-4.5,10.5c1.3,2.5,2.6,5.1,2.7,7.8c0.2,3.5-1.4,6.8-2,10.2
									c-1.9,11.3,8,20.8,16.8,28.1c6.9,5.6,13.7,11.2,20.6,16.8c-7.1,10.2-16.5,21.2-28.9,20.6c-7.4-0.4-16.1-4.7-20.8,2.8
									c-1.4,2.2-1.9,4.8-2,7.4c-0.2,8.4-5,16.4-12.1,20.7c-2.8,1.7-5.9,2.8-8.6,4.7c-3.3,2.4-5.6,5.8-7.6,9.4
									c25.3-3.9,49.7-15.6,69.2-35.1C379.5,226.3,391.6,190.8,389.3,156z"/>
								<path class="st21" d="M309.5,56.7c2.3,4.4,0.9,9.7,0.8,14.6c-0.1,5,2.6,11.1,7.5,10.9c2.4-0.1,4.5-1.6,6.8-1.7
									c6.6,0,9,11.2,15.7,10.9c1.6-0.1,3-0.9,4.5-1.3c4.6-1.3,9.4,0.9,13.8,2.7c3.3,1.4,7,2.6,10.6,3.4
									c-4.6-7.1-10.1-13.9-16.3-20.1c-13.4-13.4-29-23.1-45.7-29.1c-0.3,1.1-0.8,2.1-0.8,3.2C306.4,52.8,308.3,54.6,309.5,56.7z"
									/>
								<path class="st21" d="M163.9,124.7c0.3-0.9,0.6-1.9,0.2-2.8c-0.5-0.9-1.5-1.2-2.5-1.4c-3.3-0.6-6.8-0.2-9.9,1l-0.5,2.6
									c-1.3,0.3-1.8,1.9-1.4,3.2c0.4,1.2,1.4,2.2,2.3,3c1.8,1.6,3.6,3.3,5.4,4.9c0.4,0.3,0.8,0.7,1.2,0.7c1,0.1,1.6-1,1.9-2
									C161.8,130.8,162.8,127.8,163.9,124.7z"/>
								<path class="st21" d="M188.1,155.6c-0.8-1.2-2-2.1-2.9-3.2c-2.9-3.1-4-7.8-2.8-11.9c0.6-2.1-6.1-9.4-9.1-6.6
									c-1.4,1.3-0.8,3.7,0.1,5.4c0.9,1.7,2.1,3.6,1.4,5.4c-0.4,1.2-1.6,2-2,3.2c-0.4,1.3,0.1,2.6,0.3,4c0.3,2.1-0.3,4.1-0.2,6.2
									c0.1,2.1,1.3,4.4,3.3,4.6c1.6,0.2,3.1-1,4.6-1.4c2.6-0.6,6,0.7,7.5-1.5C189.3,158.5,188.9,156.8,188.1,155.6z"/>
							</g>
						</g>
					</g>
				</g>
			</g>
		</g>
	</g>
</g>
</svg>
